REM DIRINDEX 1\2,1\3,1\4,1\5,1\6
REM DIRNAME folder01,folder02,folder03,folder04,folder05,folder06
TITLE ""
FILE "CD2-65.mp3" MP3
  TRACK 01 AUDIO
    TITLE "6:cjc091_2795"
    INDEX 01 00:00:00
  TRACK 02 AUDIO
    TITLE "0:"
    INDEX 01 00:02:18
  TRACK 03 AUDIO
    TITLE "2:cjc091_2796"
    INDEX 01 00:03:39
  TRACK 04 AUDIO
    TITLE "0:"
    INDEX 01 00:04:68
  TRACK 05 AUDIO
    TITLE "3:cjc091_2797"
    INDEX 01 00:05:05
  TRACK 06 AUDIO
    TITLE "0:"
    INDEX 01 00:06:14
  TRACK 07 AUDIO
    TITLE "4:cjc091_2798"
    INDEX 01 00:06:31
  TRACK 08 AUDIO
    TITLE "0:"
    INDEX 01 00:09:51
  TRACK 09 AUDIO
    TITLE "2:cjc091_2799"
    INDEX 01 00:10:66
  TRACK 10 AUDIO
    TITLE "0:"
    INDEX 01 00:12:18
  TRACK 11 AUDIO
    TITLE "3:cjc091_2800"
    INDEX 01 00:12:36
  TRACK 12 AUDIO
    TITLE "0:"
    INDEX 01 00:14:21
  TRACK 13 AUDIO
    TITLE "4:cjc091_2801"
    INDEX 01 00:14:47
  TRACK 14 AUDIO
    TITLE "0:"
    INDEX 01 00:18:62
  TRACK 15 AUDIO
    TITLE "2:cjc091_2802"
    INDEX 01 00:19:71
  TRACK 16 AUDIO
    TITLE "0:"
    INDEX 01 00:21:39
  TRACK 17 AUDIO
    TITLE "3:cjc091_2803"
    INDEX 01 00:21:60
  TRACK 18 AUDIO
    TITLE "0:"
    INDEX 01 00:24:10
  TRACK 19 AUDIO
    TITLE "4:cjc091_2804"
    INDEX 01 00:24:31
  TRACK 20 AUDIO
    TITLE "0:"
    INDEX 01 00:27:04
  TRACK 21 AUDIO
    TITLE "2:cjc091_2805"
    INDEX 01 00:28:17
  TRACK 22 AUDIO
    TITLE "0:"
    INDEX 01 00:30:18
  TRACK 23 AUDIO
    TITLE "3:cjc091_2806"
    INDEX 01 00:30:42
  TRACK 24 AUDIO
    TITLE "0:"
    INDEX 01 00:32:52
  TRACK 25 AUDIO
    TITLE "4:cjc091_2807"
    INDEX 01 00:33:01
  TRACK 26 AUDIO
    TITLE "0:"
    INDEX 01 00:36:56
  TRACK 27 AUDIO
    TITLE "2:cjc091_2808"
    INDEX 01 00:37:71
  TRACK 28 AUDIO
    TITLE "0:"
    INDEX 01 00:39:37
  TRACK 29 AUDIO
    TITLE "3:cjc091_2809"
    INDEX 01 00:39:47
  TRACK 30 AUDIO
    TITLE "0:"
    INDEX 01 00:40:52
  TRACK 31 AUDIO
    TITLE "4:cjc091_2810"
    INDEX 01 00:41:00
  TRACK 32 AUDIO
    TITLE "0:"
    INDEX 01 00:45:14
  TRACK 33 AUDIO
    TITLE "2:cjc091_2811"
    INDEX 01 00:46:27
  TRACK 34 AUDIO
    TITLE "0:"
    INDEX 01 00:48:36
  TRACK 35 AUDIO
    TITLE "3:cjc091_2812"
    INDEX 01 00:48:59
  TRACK 36 AUDIO
    TITLE "0:"
    INDEX 01 00:50:35
  TRACK 37 AUDIO
    TITLE "4:cjc091_2813"
    INDEX 01 00:50:62
  TRACK 38 AUDIO
    TITLE "0:"
    INDEX 01 00:54:70
  TRACK 39 AUDIO
    TITLE "2:cjc091_2814"
    INDEX 01 00:56:14
  TRACK 40 AUDIO
    TITLE "0:"
    INDEX 01 00:57:45
  TRACK 41 AUDIO
    TITLE "3:cjc091_2815"
    INDEX 01 00:57:64
  TRACK 42 AUDIO
    TITLE "0:"
    INDEX 01 00:59:57
  TRACK 43 AUDIO
    TITLE "4:cjc091_2816"
    INDEX 01 01:00:04
  TRACK 44 AUDIO
    TITLE "0:"
    INDEX 01 01:03:55
  TRACK 45 AUDIO
    TITLE "2:cjc091_2817"
    INDEX 01 01:05:01
  TRACK 46 AUDIO
    TITLE "0:"
    INDEX 01 01:06:30
  TRACK 47 AUDIO
    TITLE "3:cjc091_2818"
    INDEX 01 01:06:43
  TRACK 48 AUDIO
    TITLE "0:"
    INDEX 01 01:08:15
  TRACK 49 AUDIO
    TITLE "4:cjc091_2819"
    INDEX 01 01:08:40
  TRACK 50 AUDIO
    TITLE "0:"
    INDEX 01 01:11:64
  TRACK 51 AUDIO
    TITLE "2:cjc091_2820"
    INDEX 01 01:13:04
  TRACK 52 AUDIO
    TITLE "0:"
    INDEX 01 01:14:23
  TRACK 53 AUDIO
    TITLE "3:cjc091_2821"
    INDEX 01 01:14:43
  TRACK 54 AUDIO
    TITLE "0:"
    INDEX 01 01:16:24
  TRACK 55 AUDIO
    TITLE "4:cjc091_2822"
    INDEX 01 01:16:46
  TRACK 56 AUDIO
    TITLE "0:"
    INDEX 01 01:19:68
  TRACK 57 AUDIO
    TITLE "2:cjc091_2823"
    INDEX 01 01:21:02
  TRACK 58 AUDIO
    TITLE "0:"
    INDEX 01 01:22:56
  TRACK 59 AUDIO
    TITLE "3:cjc091_2824"
    INDEX 01 01:22:68
  TRACK 60 AUDIO
    TITLE "0:"
    INDEX 01 01:24:22
  TRACK 61 AUDIO
    TITLE "4:cjc091_2825"
    INDEX 01 01:24:47
  TRACK 62 AUDIO
    TITLE "0:"
    INDEX 01 01:28:27
  TRACK 63 AUDIO
    TITLE "2:cjc091_2826"
    INDEX 01 01:29:41
  TRACK 64 AUDIO
    TITLE "0:"
    INDEX 01 01:31:18
  TRACK 65 AUDIO
    TITLE "3:cjc091_2827"
    INDEX 01 01:31:34
  TRACK 66 AUDIO
    TITLE "0:"
    INDEX 01 01:33:25
  TRACK 67 AUDIO
    TITLE "4:cjc091_2828"
    INDEX 01 01:33:46
  TRACK 68 AUDIO
    TITLE "0:"
    INDEX 01 01:37:13
  TRACK 69 AUDIO
    TITLE "2:cjc091_2829"
    INDEX 01 01:38:28
  TRACK 70 AUDIO
    TITLE "0:"
    INDEX 01 01:39:43
  TRACK 71 AUDIO
    TITLE "3:cjc091_2830"
    INDEX 01 01:39:63
  TRACK 72 AUDIO
    TITLE "0:"
    INDEX 01 01:40:60
  TRACK 73 AUDIO
    TITLE "4:cjc091_2831"
    INDEX 01 01:41:09
  TRACK 74 AUDIO
    TITLE "0:"
    INDEX 01 01:47:13
  TRACK 75 AUDIO
    TITLE "2:cjc091_2832"
    INDEX 01 01:48:26
  TRACK 76 AUDIO
    TITLE "0:"
    INDEX 01 01:50:53
  TRACK 77 AUDIO
    TITLE "3:cjc091_2833"
    INDEX 01 01:50:74
  TRACK 78 AUDIO
    TITLE "0:"
    INDEX 01 01:52:42
  TRACK 79 AUDIO
    TITLE "4:cjc091_2834"
    INDEX 01 01:52:65
  TRACK 80 AUDIO
    TITLE "0:"
    INDEX 01 01:57:11
  TRACK 81 AUDIO
    TITLE "2:cjc091_2835"
    INDEX 01 01:58:23
  TRACK 82 AUDIO
    TITLE "0:"
    INDEX 01 01:59:61
  TRACK 83 AUDIO
    TITLE "3:cjc091_2836"
    INDEX 01 02:00:06
  TRACK 84 AUDIO
    TITLE "0:"
    INDEX 01 02:01:70
  TRACK 85 AUDIO
    TITLE "4:cjc091_2837"
    INDEX 01 02:02:18
  TRACK 86 AUDIO
    TITLE "0:"
    INDEX 01 02:04:39
  TRACK 87 AUDIO
    TITLE "2:cjc091_2838"
    INDEX 01 02:05:48
  TRACK 88 AUDIO
    TITLE "0:"
    INDEX 01 02:06:71
  TRACK 89 AUDIO
    TITLE "3:cjc091_2839"
    INDEX 01 02:07:10
  TRACK 90 AUDIO
    TITLE "0:"
    INDEX 01 02:08:27
  TRACK 91 AUDIO
    TITLE "4:cjc091_2840"
    INDEX 01 02:08:52
  TRACK 92 AUDIO
    TITLE "0:"
    INDEX 01 02:12:52
